<?xml version="1.0" standalone="no"?><!DOCTYPE svg PUBLIC "-//W3C//DTD SVG 1.1//EN" "http://www.w3.org/Graphics/SVG/1.1/DTD/svg11.dtd"><svg t="1553135767492" class="icon" style="" viewBox="0 0 1024 1024" version="1.1" xmlns="http://www.w3.org/2000/svg" p-id="556" xmlns:xlink="http://www.w3.org/1999/xlink" width="200" height="200"><defs><style type="text/css"></style></defs><path d="M933.748364 1024H90.251636C65.954909 1024 46.498909 1002.589091 46.498909 975.965091V176.034909c0-26.530909 19.549091-48.034909 43.659636-48.034909h87.226182v48.034909c0 61.812364 45.614545 111.988364 101.841455 111.988364 56.226909 0 101.841455-50.176 101.841454-111.988364v-48.034909h261.771637v48.034909c0 61.812364 45.614545 111.988364 101.841454 111.988364 56.226909 0 101.841455-50.176 101.841455-111.988364v-48.034909h87.226182c24.203636 0 43.659636 21.410909 43.659636 48.034909v799.930182c0 26.530909-19.549091 48.034909-43.659636 48.034909zM133.818182 928.023273h756.363636V384H133.818182v544.023273z m232.727273-320.046546c12.008727 0 22.900364 5.399273 30.72 14.056728l71.028363 78.103272 172.776727-190.091636a41.611636 41.611636 0 0 1 30.906182-13.963636c24.110545 0 43.659636 21.410909 43.659637 47.941818a50.362182 50.362182 0 0 1-12.846546 33.885091L499.2 801.978182a41.611636 41.611636 0 0 1-30.906182 13.963636 41.611636 41.611636 0 0 1-30.813091-13.963636L335.639273 689.803636a50.362182 50.362182 0 0 1-12.753455-33.885091c0-26.530909 19.549091-48.034909 43.566546-48.034909zM744.680727 223.976727c-24.110545 0-43.659636-21.410909-43.659636-47.941818V48.034909C701.021091 21.410909 720.570182 0 744.680727 0s43.659636 21.410909 43.659637 48.034909V175.941818c0 26.437818-19.549091 47.941818-43.659637 47.941818z m-465.454545 0c-24.110545 0-43.659636-21.410909-43.659637-47.941818V48.034909C235.566545 21.410909 255.115636 0 279.226182 0s43.659636 21.410909 43.659636 48.034909V175.941818c0 26.437818-19.549091 47.941818-43.659636 47.941818z" fill="#000000" p-id="557"></path></svg>