<?xml version="1.0" standalone="no"?><!DOCTYPE svg PUBLIC "-//W3C//DTD SVG 1.1//EN" "http://www.w3.org/Graphics/SVG/1.1/DTD/svg11.dtd"><svg t="1553135941622" class="icon" style="" viewBox="0 0 1024 1024" version="1.1" xmlns="http://www.w3.org/2000/svg" p-id="992" xmlns:xlink="http://www.w3.org/1999/xlink" width="200" height="200"><defs><style type="text/css"></style></defs><path d="M858.112 181.248 749.568 181.248l0-50.176c0-14.336-11.264-25.6-25.6-25.6-14.336 0-25.6 11.264-25.6 25.6l0 50.176L546.816 181.248l0-50.176c0-14.336-11.264-25.6-25.6-25.6s-25.6 11.264-25.6 25.6l0 50.176L345.088 181.248l0-50.176c0-14.336-11.264-25.6-25.6-25.6-14.336 0-25.6 11.264-25.6 25.6l0 50.176L184.32 181.248c-36.864 0-67.584 29.696-67.584 67.584l0 598.016c0 36.864 29.696 67.584 67.584 67.584l673.792 0c36.864 0 67.584-29.696 67.584-67.584L925.696 248.832C925.696 210.944 896 181.248 858.112 181.248zM875.52 846.848c0 9.216-7.168 16.384-16.384 16.384L184.32 863.232c-9.216 0-16.384-7.168-16.384-16.384L167.936 248.832c0-9.216 7.168-16.384 16.384-16.384l109.568 0 0 50.176c0 14.336 11.264 25.6 25.6 25.6 14.336 0 25.6-11.264 25.6-25.6l0-50.176 151.552 0 0 50.176c0 14.336 11.264 25.6 25.6 25.6s25.6-11.264 25.6-25.6l0-50.176 151.552 0 0 50.176c0 14.336 11.264 25.6 25.6 25.6 14.336 0 25.6-11.264 25.6-25.6l0-50.176 109.568 0c9.216 0 16.384 7.168 16.384 16.384L876.544 846.848z" p-id="993"></path><path d="M293.888 408.576l454.656 0 0 75.776-454.656 0 0-75.776Z" p-id="994"></path><path d="M293.888 534.528l454.656 0 0 75.776-454.656 0 0-75.776Z" p-id="995"></path><path d="M293.888 661.504l454.656 0 0 75.776-454.656 0 0-75.776Z" p-id="996"></path></svg>