<?xml version="1.0" standalone="no"?><!DOCTYPE svg PUBLIC "-//W3C//DTD SVG 1.1//EN" "http://www.w3.org/Graphics/SVG/1.1/DTD/svg11.dtd"><svg t="1553136415793" class="icon" style="" viewBox="0 0 1024 1024" version="1.1" xmlns="http://www.w3.org/2000/svg" p-id="3236" xmlns:xlink="http://www.w3.org/1999/xlink" width="200" height="200"><defs><style type="text/css"></style></defs><path d="M484.5568 860.9792H110.592c-16.5888 0-30.1056-13.5168-30.1056-30.1056V110.592c0-16.5888 13.5168-30.1056 30.1056-30.1056h591.4624c16.5888 0 30.1056 13.5168 30.1056 30.1056v255.1808c0 16.5888 13.5168 30.1056 30.1056 30.1056s30.1056-13.5168 30.1056-30.1056V110.592c0-49.5616-40.5504-90.112-90.112-90.112H110.592c-49.5616 0-90.112 40.5504-90.112 90.112v720.4864c0 49.5616 40.5504 90.112 90.112 90.112h374.1696c16.5888 0 30.1056-13.5168 30.1056-30.1056-0.2048-16.5888-13.7216-30.1056-30.3104-30.1056z m0 0" p-id="3237"></path><path d="M633.856 185.5488H162.6112c-16.5888 0-30.1056 13.5168-30.1056 30.1056S146.0224 245.76 162.6112 245.76h471.2448c16.5888 0 30.1056-13.5168 30.1056-30.1056s-13.5168-30.1056-30.1056-30.1056z m0 150.1184H162.6112c-16.5888 0-30.1056 13.5168-30.1056 30.1056s13.5168 30.1056 30.1056 30.1056h471.2448c16.5888 0 30.1056-13.5168 30.1056-30.1056s-13.5168-30.1056-30.1056-30.1056z m-75.5712 150.1184H162.6112c-16.5888 0-30.1056 13.5168-30.1056 30.1056s13.5168 30.1056 30.1056 30.1056h395.8784c16.5888 0 30.1056-13.5168 30.1056-30.1056-0.2048-16.5888-13.7216-30.1056-30.3104-30.1056z m388.5056 462.6432H621.7728c-16.7936 0-30.5152 12.4928-30.5152 27.4432 0 14.9504 13.9264 27.4432 30.5152 27.4432h325.0176c16.7936 0 30.1056-12.0832 30.5152-28.0576 0-14.7456-13.9264-26.8288-30.5152-26.8288z m-8.3968-215.6544H874.496c-8.3968-17.408 2.2528-50.5856 28.8768-89.4976l0.6144-1.024v-0.4096c0.6144-0.4096 1.024-1.4336 1.024-1.4336 11.6736-20.0704 23.3472-45.056 23.3472-77.6192 0-72.4992-63.488-130.048-144.7936-130.6624h-1.024c-81.3056 0.4096-144.1792 57.9584-144.1792 130.6624 0 32.5632 11.6736 56.9344 23.3472 77.0048 0.6144 1.4336 1.024 2.4576 1.6384 3.072l0.6144 0.4096c26.624 39.1168 37.2736 71.4752 28.8768 89.4976H628.736c-36.2496 0-65.1264 27.0336-65.1264 60.6208v96.4608c0 13.5168 12.288 24.576 27.2384 24.576H976.896c14.9504 0 26.624-11.0592 26.624-23.9616v-97.0752c0-33.5872-28.8768-60.6208-65.1264-60.6208z m5.12 126.1568h-319.488v-65.536c0-3.072 2.2528-4.9152 4.9152-4.9152H714.752c3.2768 0 6.3488-1.024 8.8064-3.072 46.6944-34.6112 44.032-95.0272-7.7824-170.5984-10.6496-18.432-16.7936-32.9728-16.7936-52.0192 0-42.5984 36.6592-74.9568 84.5824-75.5712 48.3328 0.4096 84.5824 32.9728 84.5824 75.5712 0 19.456-6.144 33.9968-16.7936 52.0192-51.8144 75.5712-54.0672 135.9872-7.7824 170.5984 2.4576 2.048 5.5296 3.072 8.8064 3.072h85.1968c2.8672 0 4.9152 2.048 4.9152 4.9152v65.536h1.024zM563.8144 635.904H162.6112c-16.5888 0-30.1056 13.5168-30.1056 30.1056s13.5168 30.1056 30.1056 30.1056h401.2032c16.5888 0 30.1056-13.5168 30.1056-30.1056s-13.5168-30.1056-30.1056-30.1056z m0 0" p-id="3238"></path></svg>