<?xml version="1.0" encoding="utf-8"?>
<!-- Generator: Adobe Illustrator 22.0.0, SVG Export Plug-In . SVG Version: 6.00 Build 0)  -->
<svg version="1.1" id="图层_1" xmlns="http://www.w3.org/2000/svg" xmlns:xlink="http://www.w3.org/1999/xlink" x="0px" y="0px"
	 viewBox="0 0 500 500" style="enable-background:new 0 0 500 500;" xml:space="preserve">
<path d="M453.4,324.6c0,1.3-7.7,42.3-47.5,80.8C370,440,276.3,487.5,257.1,496.5l-5.1,2.6c-2.4,1.3-5.3,1.3-7.7,0l-3.8-2.6
	c-1.3-1.3-5.2-3.8-10.3-6.4c-32.1-16.7-106.5-56.4-137.4-85.9c-39.8-38.5-47.5-79.6-47.5-80.8v-2.6L44,78.2
	c0-7.7,5.2-14.1,11.5-16.7L249.4,0l195,61.6c6.4,2.5,11.5,9,11.5,16.7L453.4,324.6z M420,85.9L255.8,33.4c-2.6-1.3-6.4-1.3-10.3,0
	L81.3,85.9c-2.5,1.3-5.1,3.8-5.1,7.7l1.3,224.5c1.3,6.4,9,35.9,38.5,64.1c26.9,26.9,101.3,66.7,129.6,80.8c2.4,1.3,5.3,1.3,7.7,0
	c26.9-14.1,102.6-52.6,130.9-80.8c28.2-29.5,37.2-57.7,38.5-64.1l2.6-224.5C425.2,89.8,423.9,87.2,420,85.9L420,85.9z M348.4,241.4
	c-13.2,13.1-31,20.5-49.6,20.6c-12.9,0.1-25.5-3.7-36.3-10.9L241.7,272l20.9,20.9c3.6,3.6,5.5,7.2,5.5,12.7s-1.8,9.1-5.5,12.7
	s-8.2,4.5-12.7,5.5c-5.5,0-9.1-1.8-12.7-5.5l-20.9-20.9l-34.5,34.5c-3.6,3.6-8.2,4.5-12.7,5.5c-5.5,0-9.1-1.8-12.7-5.5
	c-3.6-3.6-5.5-7.2-5.5-12.7s1.8-9.1,5.5-12.7l80.7-80.8c-7.2-10.9-10-22.7-10-35.4c0.3-38.9,31.8-70.5,70.7-70.7
	c19.1,0.9,37.2,8.2,50.8,21.8C376.3,169,376.2,213.8,348.4,241.4L348.4,241.4z M341.5,190.3c0-23.6-18.2-41.7-41.7-41.7
	c-10.9,0-21.8,3.6-29.9,11.8c-8.2,8.2-12.7,18.2-11.8,29.9c0,10.9,4.5,20.9,12.7,29c15.4,17.2,42.6,17.2,58.9,0.9
	C337.8,212.1,342.4,202.1,341.5,190.3z"/>
</svg>
