<?xml version="1.0" encoding="utf-8"?>
<!-- Generator: Adobe Illustrator 22.0.0, SVG Export Plug-In . SVG Version: 6.00 Build 0)  -->
<svg version="1.1" id="图层_1" xmlns="http://www.w3.org/2000/svg" xmlns:xlink="http://www.w3.org/1999/xlink" x="0px" y="0px"
	 viewBox="0 0 500 500" style="enable-background:new 0 0 500 500;" xml:space="preserve">
<path d="M101.1,1.9c-27.4,0-49.4,22.2-49.4,49.6l-0.2,397c0,27.4,22,49.6,49.4,49.6h298c27.4,0,49.6-22.2,49.6-49.6V150.8L299.6,1.9
	H101.1z M334.3,456.8l-84.1-84.1l-86.1,86.1L120,414.6l86.1-86.1l-84.1-84.1l44.2-44.2l84.1,84.1l82.2-82.2l44.2,44.2l-82.2,82.2
	l84.1,84.1L334.3,456.8L334.3,456.8z M274.8,175.6V39.1l136.5,136.5L274.8,175.6L274.8,175.6z"/>
</svg>
