<?xml version="1.0" standalone="no"?><!DOCTYPE svg PUBLIC "-//W3C//DTD SVG 1.1//EN" "http://www.w3.org/Graphics/SVG/1.1/DTD/svg11.dtd"><svg t="1559792259158" class="icon" style="" viewBox="0 0 1024 1024" version="1.1" xmlns="http://www.w3.org/2000/svg" p-id="3184" xmlns:xlink="http://www.w3.org/1999/xlink" width="500" height="500"><defs><style type="text/css"></style></defs><path d="M144.512 753.984h7.232V832h-35.648A116.096 116.096 0 0 1 0 715.904V116.096C0 51.968 51.968 0 116.096 0h599.808C780.032 0 832 51.968 832 116.096v35.328h-76.416v-8.448a66.56 66.56 0 0 0-66.56-66.56H144.576a66.56 66.56 0 0 0-66.56 66.56v544.512c0 36.736 29.824 66.56 66.56 66.56zM1024 907.904A116.096 116.096 0 0 1 907.904 1024H308.096A116.096 116.096 0 0 1 192 907.904V308.096C192 243.968 243.968 192 308.096 192h599.808C972.032 192 1024 243.968 1024 308.096v599.808zM551.808 832l111.808 0.064v-168.32H832V551.872h-168.32V384H551.744v167.872H384v111.744h167.808V832z" p-id="3185"></path></svg>