<?xml version="1.0" encoding="utf-8"?>
<!-- Generator: Adobe Illustrator 22.0.0, SVG Export Plug-In . SVG Version: 6.00 Build 0)  -->
<svg version="1.1" id="图层_1" xmlns="http://www.w3.org/2000/svg" xmlns:xlink="http://www.w3.org/1999/xlink" x="0px" y="0px"
	 viewBox="0 0 500 500" style="enable-background:new 0 0 500 500;" xml:space="preserve">
<g>
	<path d="M291,367.3c-11.6,24.2-26.6,58.4-26.6,73.7c0,21.5,39.8,36.5,39.8,36.5s39.8-15,39.8-36.5c0-15.2-15-49.5-26.6-73.7
		C309,371.5,299.3,371.5,291,367.3z M293,325.3c-6.2,6.2-6.2,16.1,0,22.3c6.2,6.2,16.1,6.2,22.3,0c6.2-6.2,6.2-16.1,0-22.3
		C309.2,319.1,299.2,319.1,293,325.3z M420.8,298.8c-8.1-5.9-19.5-4.2-25.6,3.8c-6.1,8-4.7,19.4,3.1,25.7
		c40.9,31,64.8,79.5,64.7,130.8c0,10.2,8.3,18.5,18.5,18.6c10.2-0.1,18.5-8.3,18.5-18.6C500.2,396.1,470.9,336.8,420.8,298.8z"/>
	<path d="M434.6,158.5c0-75.1-60.9-136-136-136c-60.1-0.1-113.1,39.4-130.3,96.9C151,177,173.7,239,224,272
		C147.8,302.8,97.8,376.7,97.3,458.8c0,10.3,8.3,18.5,18.5,18.5c10.3,0,18.5-8.3,18.5-18.5c0.1-90.7,73.5-164.2,164.2-164.3
		C373.7,294.6,434.6,233.6,434.6,158.5z M199.7,158.5c-0.5-35.7,18.2-69,49.1-87c30.8-18,69-18,99.9,0s49.6,51.3,49.1,87
		c-0.8,54.1-44.9,97.5-99,97.5S200.4,212.6,199.7,158.5L199.7,158.5z"/>
	<path d="M139.9,273.3c0.2,0,0.3,0.1,0.5,0.1c9.6,0,17.4-7.8,17.4-17.4c0-9.2-7.2-16.7-16.4-17.2c-35-8.9-59.4-40.4-59.5-76.5
		c0-33.6,21-62.1,50.5-73.7c5.6-12.5,12.5-24.1,20.8-34.6c-45,3.2-83.4,33.8-96.3,76.9c-13.8,46.1,4.4,95.7,44.6,122.1
		C40.4,277.8,0.3,336.8,0,402.5c0,8.2,6.7,14.9,14.9,14.9s14.9-6.7,14.9-14.9C29.7,337.3,77.4,283.5,139.9,273.3L139.9,273.3z"/>
</g>
</svg>
