<?xml version="1.0" encoding="utf-8"?>
<!-- Generator: Adobe Illustrator 22.0.0, SVG Export Plug-In . SVG Version: 6.00 Build 0)  -->
<svg version="1.1" id="图层_1" xmlns="http://www.w3.org/2000/svg" xmlns:xlink="http://www.w3.org/1999/xlink" x="0px" y="0px"
	 viewBox="0 0 500 500" style="enable-background:new 0 0 500 500;" xml:space="preserve">
<path d="M260.7,295.6c8.4,1.4,16.8-4.2,18.3-12.8c1.5-8.6-4.2-16.8-12.8-18.3c-12.1-2.2-24-3.4-35.4-3.5
	c-66.2-0.8-122.6,19-162.4,58.2c-40.6,39.9-63,98.1-63,163.8c0,8.7,7.1,15.8,15.8,15.8c8.7,0,15.8-7.1,15.8-15.8
	c0-57.2,19-107.3,53.5-141.3c34.1-33.6,82.4-50.1,139.7-49.1C240,292.7,250.2,293.8,260.7,295.6z M423.8,422.2
	c-8.6,1.6-14.3,9.8-12.7,18.4c2.5,13.6,3.7,27.9,3.7,42.4c0,8.7,7.1,15.8,15.8,15.8s15.8-7.1,15.8-15.8c0-16.4-1.4-32.6-4.2-48
	C440.6,426.3,432,420.8,423.8,422.2L423.8,422.2z M218.2,248.5c68.5,0,124.2-55.7,124.2-124.2C342.4,55.7,286.7,0,218.2,0
	C149.7,0,94,55.7,94,124.2C94,192.7,149.7,248.5,218.2,248.5z M218.2,31.6c51.1,0,92.6,41.6,92.6,92.6c0,51.1-41.6,92.6-92.6,92.6
	s-92.6-41.6-92.6-92.6S167.1,31.6,218.2,31.6L218.2,31.6z M247.2,419c-7.1,7.1-7.1,18.6,0,25.7c7.1,7.1,18.6,7.1,25.7,0
	c7.1-7.1,7.1-18.6,0-25.7C265.8,411.9,254.3,411.9,247.2,419L247.2,419z M485.4,258.4c-0.2-0.4-0.3-0.8-0.5-1.3c0-0.1,0-0.1-0.1-0.2
	c-0.1-0.3-0.4-0.5-0.6-0.8c-0.7-1.3-1.4-2.6-2.5-3.7c-0.2-0.2-0.4-0.2-0.6-0.4c-0.3-0.3-0.7-0.4-1-0.6c-3-2.4-6.6-3.6-10.3-3.5
	c0,0-0.1,0-0.1,0c-2,0.1-3.9,0.5-5.7,1.4c-0.1,0-0.2,0-0.3,0.1c-0.6,0.3-1,0.8-1.6,1.2c-0.9,0.6-1.9,1-2.7,1.8L416.8,295l-19-19
	l42.7-42.7c6.2-6.2,6.2-16.2,0-22.3c-1.1-1.1-2.4-1.8-3.8-2.5c-0.4-0.2-0.7-0.6-1.1-0.8c-0.1-0.1-0.2-0.1-0.3-0.1c0,0,0,0,0,0
	C396,189,349,197.1,318.2,227.9c-28.9,28.9-36.7,70.6-24.2,106.8l-27.5,27.5c-20.1-1.6-39.9,5-54.4,19.5c-27,27-27,71,0,98
	c13.5,13.5,31.2,20.3,49,20.3c17.7,0,35.5-6.8,49-20.3c14.3-14.3,21-33.7,19.6-53.5l27.9-27.9c10.9,3.8,22.3,6,33.7,6
	c26.5,0,52.9-10.1,73.1-30.2C494.8,343.7,503,297.5,485.4,258.4L485.4,258.4z M302.6,408.7c-0.2,0.2-0.2,0.4-0.3,0.5
	c-1.3,1.3-2.3,2.8-3,4.5c-0.1,0.1-0.1,0.3-0.2,0.4c-0.7,1.7-1,3.6-1.1,5.5c0,0.1,0,0.3,0,0.4c0,1-0.2,2,0,3
	c2.6,12.5-1.3,25.4-10.3,34.4c-14.7,14.7-38.7,14.6-53.3,0c-14.7-14.7-14.7-38.6,0-53.4c9.2-9.1,22.2-12.9,34.8-10.2
	c0.6,0.1,1.1,0,1.6,0c0.6,0.1,1.1,0.3,1.7,0.3c0.5,0,0.9-0.2,1.4-0.3c1.1-0.1,2.1-0.3,3.2-0.6c0.8-0.2,1.6-0.6,2.4-0.9
	c1.1-0.6,2.1-1.2,3.1-2c0.4-0.3,0.8-0.4,1.1-0.8l26-25.9c2.7,3.5,5.3,7.2,8.5,10.4c3.2,3.2,6.9,5.8,10.4,8.5L302.6,408.7
	L302.6,408.7z M442,351.8c-28,28-73.5,28-101.5,0c-28-28-28-73.5,0-101.5c15.7-15.7,37.5-22.8,58.8-20.4L371.2,258
	c-4.8,4.8-7.5,11.3-7.5,18.1c0,6.8,2.7,13.2,7.5,18l27.5,27.6c5,4.9,11.5,7.4,18,7.4c6.5,0,13.1-2.5,18.1-7.4l27.5-27.6
	C464.4,315,457.5,336.3,442,351.8L442,351.8z"/>
</svg>
