<?xml version="1.0" encoding="utf-8"?>
<!-- Generator: Adobe Illustrator 22.0.0, SVG Export Plug-In . SVG Version: 6.00 Build 0)  -->
<svg version="1.1" id="图层_1" xmlns="http://www.w3.org/2000/svg" xmlns:xlink="http://www.w3.org/1999/xlink" x="0px" y="0px"
	 viewBox="0 0 500 500" style="enable-background:new 0 0 500 500;" xml:space="preserve">
<path d="M187.5,250L31.3,375l156.3,125v-93.8h109.4c8.6,0,15.6-7,15.6-15.6v-31.3c0-8.6-7-15.6-15.6-15.6H187.5V250z"/>
<path d="M312.5,0L78.1,0c-8.6,0-15.6,7-15.6,15.6V250H125V62.5h156.3v109.4c0,8.6,7,15.6,15.6,15.6h109.4v250h-93.8V500h140.6
	c8.6,0,15.6-7,15.6-15.6V156.2L312.5,0z"/>
</svg>
