<svg xmlns="http://www.w3.org/2000/svg" xmlns:xlink="http://www.w3.org/1999/xlink" viewBox="0 0 36.9 40.25"><defs><style>.cls-1{fill:none;}.cls-2{clip-path:url(#clip-path);}</style><clipPath id="clip-path"><rect class="cls-1" x="0.01" width="36.89" height="40.25"/></clipPath></defs><title>资源 3</title><g id="图层_2" data-name="图层 2"><g id="图层_1-2" data-name="图层 1"><g class="cls-2"><path d="M17.44,24.15A12.08,12.08,0,1,1,29.52,12.07,12,12,0,0,1,17.44,24.15Zm0-21.47a9.51,9.51,0,0,0-9.39,9.39,9.51,9.51,0,0,0,9.39,9.39,9.51,9.51,0,0,0,9.39-9.39,9.51,9.51,0,0,0-9.39-9.39Zm0,0"/><path d="M1.34,40.25A1.27,1.27,0,0,1,0,38.91,17.41,17.41,0,0,1,17.44,21.47,18,18,0,0,1,29,25.76a1.33,1.33,0,0,1-1.88,1.88,14.73,14.73,0,0,0-9.93-3.76A14.89,14.89,0,0,0,2.41,38.64c.27,1.07-.27,1.61-1.07,1.61Zm0,0"/><path d="M22.27,40.25l-5.9-5.9a1.33,1.33,0,0,1,1.88-1.88l4,4L34.61,24.15A1.33,1.33,0,0,1,36.49,26Zm0,0"/></g></g></g></svg>