<?xml version="1.0" encoding="utf-8"?>
<!-- Generator: Adobe Illustrator 22.0.0, SVG Export Plug-In . SVG Version: 6.00 Build 0)  -->
<svg version="1.1" id="图层_1" xmlns="http://www.w3.org/2000/svg" xmlns:xlink="http://www.w3.org/1999/xlink" x="0px" y="0px"
	 viewBox="0 0 500 500" style="enable-background:new 0 0 500 500;" xml:space="preserve">
<style type="text/css">
	.st0{stroke:#000000;stroke-width:10;stroke-miterlimit:10;}
	.st1{stroke:#000000;stroke-width:15;stroke-miterlimit:10;}
</style>
<path class="st0" d="M312.9,15.3C183.3-19.4,50.1,57.5,15.3,187.2C3.7,243.7,8,295.7,30.8,345.7c0.1,0.2,0.2,0.4,0.3,0.5l0.3,0.6
	c5.6,9.9,18.2,13.4,28.1,7.8c9.2-5.2,13-16.6,8.7-26.3C45.5,284,42.2,245.8,55.1,197.8C83.9,90.2,194.6,26.3,302.2,55.1
	s171.6,139.5,142.7,247.1c-28.8,107.6-139.5,171.5-247.1,142.7c-29.1-7.8-46-17.9-68.9-37.5c-8.9-7.1-21.8-5.7-28.9,3.2
	c-6.8,8.5-5.8,20.8,2.2,28.1c32.9,24.3,50,36.6,85,46c129.6,34.7,262.8-42.2,297.5-171.8S442.5,50.1,312.9,15.3z"/>
<path class="st1" d="M283.8,252.5c9.6-8.3,18.5-17.4,26.8-27c0.1-0.1,0.2-0.2,0.2-0.3c7.8-10.3,12.1-21.4,12.1-37
	c0-19.5-6.4-34.8-19.1-45.8c-12.5-11.3-29.3-16.9-50.3-16.9c-23.4,0-41.9,6.7-55.7,20.1c-12.9,12.3-19.8,29.2-20.6,50.8
	c0,0.3,0,0.6,0.1,0.9c0.5,9.5,8.7,16.8,18.2,16.2c8.6-0.5,15.5-7.2,16.2-15.8c0.1-0.3,0.1-0.6,0.2-0.9c0.8-11.8,4.8-20.9,9.5-27.3
	c6.4-8.5,16.3-12.7,29.9-12.7c11,0,19.5,3,25.5,8.9c5.9,6.4,8.9,14.6,8.9,24.8c0,8.1-2.9,15.6-8.6,22.6l-3.6,4.3l-0.4,0.4
	c-20.7,18.4-32.2,31.8-36.2,40.2c-4.2,8.3-6.4,18.7-6.4,31.2c0,2.5,2,4.5,4.5,4.5h25.1c2.5,0,4.5-2,4.5-4.5c0-7.6,2.4-14.6,5.6-21
	C273.4,261.9,278.5,256.7,283.8,252.5L283.8,252.5z"/>
<path class="st1" d="M226.1,355.2c0,11.8,9.6,21.4,21.4,21.4c11.8,0,21.4-9.6,21.4-21.4c0-11.8-9.6-21.4-21.4-21.4
	C235.7,333.9,226.1,343.4,226.1,355.2z"/>
</svg>
