<?xml version="1.0" standalone="no"?><!DOCTYPE svg PUBLIC "-//W3C//DTD SVG 1.1//EN" "http://www.w3.org/Graphics/SVG/1.1/DTD/svg11.dtd"><svg t="1559807425175" class="icon" style="" viewBox="0 0 1024 1024" version="1.1" xmlns="http://www.w3.org/2000/svg" p-id="21772" xmlns:xlink="http://www.w3.org/1999/xlink" width="500" height="500"><defs><style type="text/css"></style></defs><path d="M320 704 96 704c-17.672 0-32 14.328-32 32l0 64c0 17.672 14.328 32 32 32l224 0 0 192 320-256L320 512 320 704z" p-id="21773"></path><path d="M640-0.022 160 0c-17.672 0-32 14.326-32 32l0 480 128 0L256 128l320 0 0 224c0 17.674 14.326 32 32 32l224 0 0 512-192 0 0 128 288 0c17.672 0 32-14.326 32-32L960 319.976 640-0.022z" p-id="21774"></path></svg>