<?xml version="1.0" encoding="utf-8"?>
<!-- Generator: Adobe Illustrator 22.0.0, SVG Export Plug-In . SVG Version: 6.00 Build 0)  -->
<svg version="1.1" id="图层_1" xmlns="http://www.w3.org/2000/svg" xmlns:xlink="http://www.w3.org/1999/xlink" x="0px" y="0px"
	 viewBox="0 0 500 500" style="enable-background:new 0 0 500 500;" xml:space="preserve">
<path d="M457.2,43.4h-190V26.2c0-9.5-7.7-17.2-17.2-17.2s-17.2,7.7-17.2,17.2v17.2h-190C24.1,43.4,9,57,9,73.8v248.8
	c0,16.8,15.1,30.4,33.8,30.4h168.1L108.3,462c-6.5,6.9-6.2,17.8,0.8,24.3c6.9,6.5,17.8,6.2,24.3-0.8l99.3-105.7v59
	c0,9.5,7.7,17.2,17.2,17.2s17.2-7.7,17.2-17.2v-60l100.3,106.7c6.5,6.9,17.4,7.3,24.3,0.8c6.9-6.5,7.3-17.4,0.8-24.3L290.1,352.9
	h167.2c18.6,0,33.8-13.6,33.8-30.4V73.8C491,57,475.9,43.4,457.2,43.4L457.2,43.4z M456.6,291.7c0,16.8-15.1,30.4-33.8,30.4H77.2
	c-18.6,0-33.8-13.6-33.8-30.4v-187c0-16.8,15.1-30.4,33.8-30.4h345.6c18.6,0,33.8,13.6,33.8,30.4V291.7z M128,284.8h34.4V164.3H128
	V284.8z M197.7,284.8h34.4V130.5h-34.4V284.8z M266.1,284.8h34.4v-84.5h-34.4V284.8z M334.5,284.8H369V98.2h-34.4V284.8z"/>
</svg>
