<?xml version="1.0" encoding="utf-8"?>
<!-- Generator: Adobe Illustrator 22.0.0, SVG Export Plug-In . SVG Version: 6.00 Build 0)  -->
<svg version="1.1" id="图层_1" xmlns="http://www.w3.org/2000/svg" xmlns:xlink="http://www.w3.org/1999/xlink" x="0px" y="0px"
	 viewBox="0 0 500 500" style="enable-background:new 0 0 500 500;" xml:space="preserve">
<path d="M406.2,31.2H93.7c-34.5,0-62.5,28-62.5,62.5v312.4c0,34.5,28,62.5,62.5,62.5h312.4c34.5,0,62.5-28,62.5-62.5V93.7
	C468.7,59.2,440.7,31.2,406.2,31.2z M431.4,401.2c0,16.7-13.5,30.2-30.1,30.2c0,0-0.1,0-0.1,0H98.8c-8.1,0-15.7-3.1-21.4-8.8
	c-5.7-5.7-8.9-13.3-8.9-21.4V98.8c0-16.7,13.6-30.3,30.3-30.3h302.3c16.7,0,30.2,13.6,30.2,30.3c0,0,0,0,0,0V401.2z"/>
<path d="M392.3,173.4H256.2c-9.4,0-17,9-17,20s7.6,20,17,20h136.1c9.4,0,17-9,17-20S401.7,173.4,392.3,173.4L392.3,173.4z
	 M392.3,299.5H256.2c-9.4,0-17,9-17,20c0,11,7.6,20,17,20h136.1c9.4,0,17-9,17-20C409.3,308.4,401.7,299.5,392.3,299.5L392.3,299.5z
	 M168,257.8c-30.2,0-54.7,24.5-54.7,54.7c0,30.2,24.5,54.7,54.7,54.7s54.7-24.5,54.7-54.7C222.6,282.3,198.2,257.8,168,257.8
	L168,257.8z M184.6,329.1c-9.2,9.2-24,9.2-33.2,0c-9.2-9.2-9.2-24,0-33.2c9.2-9.2,24-9.2,33.2,0c4.4,4.4,6.9,10.4,6.9,16.6
	C191.5,318.7,189,324.7,184.6,329.1L184.6,329.1z M203.8,145.2l-51.5,51.5l-20.2-20.2c-6.1-6.1-16-6.1-22.1,0
	c-6.1,6.1-6.1,16,0,22.1l31.2,31.3c6.1,6.1,16,6.1,22.1,0c0,0,0,0,0,0l62.5-62.5c6.1-6.1,6-16-0.1-22.1
	C219.7,139.2,209.9,139.2,203.8,145.2L203.8,145.2z"/>
</svg>
