<svg xmlns="http://www.w3.org/2000/svg" xmlns:xlink="http://www.w3.org/1999/xlink" viewBox="0 0 43.63 40.15"><defs><style>.cls-1{fill:none;}.cls-2{clip-path:url(#clip-path);}.cls-3{fill:#333;}</style><clipPath id="clip-path" transform="translate(0 -0.02)"><rect class="cls-1" width="43.62" height="40.25"/></clipPath></defs><title>资源 5</title><g id="图层_2" data-name="图层 2"><g id="图层_1-2" data-name="图层 1"><g class="cls-2"><path class="cls-3" d="M7,31.83A1.56,1.56,0,0,1,5.45,30l1.2-6.23a1.56,1.56,0,0,1,.44-.81L29.49.48a1.56,1.56,0,0,1,2.21,0l5.06,5.06a1.56,1.56,0,0,1,0,2.2L14.35,30.16a1.56,1.56,0,0,1-.81.44L7.31,31.8Zm2.65-7.06-.69,3.54,3.52-.61,21-21L30.6,3.78ZM42.07,40.16H1.56a1.56,1.56,0,0,1,0-3.12H42.07a1.56,1.56,0,0,1,0,3.12Zm0,0" transform="translate(0 -0.02)"/></g></g></g></svg>