<?xml version="1.0" encoding="utf-8"?>
<!-- Generator: Adobe Illustrator 22.0.0, SVG Export Plug-In . SVG Version: 6.00 Build 0)  -->
<svg version="1.1" id="图层_1" xmlns="http://www.w3.org/2000/svg" xmlns:xlink="http://www.w3.org/1999/xlink" x="0px" y="0px"
	 viewBox="0 0 500 500" style="enable-background:new 0 0 500 500;" xml:space="preserve">
<path d="M388.4,499.8H111.6c-33.9,0-61.5-29.1-61.5-65V239.9c0-35.8,27.6-65,61.5-65h16c-1.6-8.1-2.5-16.5-2.5-25v-25
	C125,55.9,181,0,250,0c69,0,125,55.9,125,125v25c0,8.5-0.9,16.9-2.5,25h16c33.9,0,61.5,29.1,61.5,65v194.9
	C449.9,470.7,422.3,499.8,388.4,499.8L388.4,499.8z M225,343.1v56.8c0,13.8,11.2,25,25,25c13.8,0,25-11.2,25-25v-56.8
	c15.2-8.6,25.5-24.6,25.5-43.2c0-27.6-22.6-50-50.5-50c-27.9,0-50.5,22.4-50.5,50C199.5,318.5,209.9,334.5,225,343.1L225,343.1z
	 M325,125c0-41.4-33.6-75-75-75s-75,33.6-75,75v50h150V125z"/>
</svg>
