<?xml version="1.0" encoding="utf-8"?>
<!-- Generator: Adobe Illustrator 22.0.0, SVG Export Plug-In . SVG Version: 6.00 Build 0)  -->
<svg version="1.1" id="图层_1" xmlns="http://www.w3.org/2000/svg" xmlns:xlink="http://www.w3.org/1999/xlink" x="0px" y="0px"
	 viewBox="0 0 500 500" style="enable-background:new 0 0 500 500;" xml:space="preserve">
<path d="M157.7,268.5H83.8c-40.6,0-73.8,33.2-73.8,73.8v73.8c0,40.6,33.2,73.8,73.8,73.8h73.8c40.6,0,73.8-33.2,73.8-73.8v-73.8
	C231.5,301.7,198.3,268.5,157.7,268.5z M194.6,416.2c0,20.3-16.6,36.9-36.9,36.9H83.8c-20.3,0-36.9-16.6-36.9-36.9v-73.8
	c0-20.3,16.6-36.9,36.9-36.9h73.8c20.3,0,36.9,16.6,36.9,36.9L194.6,416.2L194.6,416.2z M416.2,10h-73.8
	c-40.6,0-73.8,33.2-73.8,73.8v73.8c0,40.6,33.2,73.8,73.8,73.8h73.8c40.6,0,73.8-33.2,73.8-73.8V83.8C490,43.2,456.8,10,416.2,10z
	 M453.1,157.7c0,20.3-16.6,36.9-36.9,36.9h-73.8c-20.3,0-36.9-16.6-36.9-36.9V83.8c0-20.3,16.6-36.9,36.9-36.9h73.8
	c20.3,0,36.9,16.6,36.9,36.9V157.7z M416.2,268.5h-73.8c-40.6,0-73.8,33.2-73.8,73.8v73.8c0,40.6,33.2,73.8,73.8,73.8h73.8
	c40.6,0,73.8-33.2,73.8-73.8v-73.8C490,301.7,456.8,268.5,416.2,268.5z M453.1,416.2c0,20.3-16.6,36.9-36.9,36.9h-73.8
	c-20.3,0-36.9-16.6-36.9-36.9v-73.8c0-20.3,16.6-36.9,36.9-36.9h73.8c20.3,0,36.9,16.6,36.9,36.9V416.2z M157.7,10H83.8
	C43.2,10,10,43.2,10,83.8v73.8c0,40.6,33.2,73.8,73.8,73.8h73.8c40.6,0,73.8-33.2,73.8-73.8V83.8C231.5,43.2,198.3,10,157.7,10
	L157.7,10z M194.6,157.7c0,20.3-16.6,36.9-36.9,36.9H83.8c-20.3,0-36.9-16.6-36.9-36.9V83.8c0-20.3,16.6-36.9,36.9-36.9h73.8
	c20.3,0,36.9,16.6,36.9,36.9L194.6,157.7L194.6,157.7z"/>
</svg>
