<?xml version="1.0" encoding="utf-8"?>
<!-- Generator: Adobe Illustrator 22.0.0, SVG Export Plug-In . SVG Version: 6.00 Build 0)  -->
<svg version="1.1" id="图层_1" xmlns="http://www.w3.org/2000/svg" xmlns:xlink="http://www.w3.org/1999/xlink" x="0px" y="0px"
	 viewBox="0 0 500 500" style="enable-background:new 0 0 500 500;" xml:space="preserve">
<path d="M487.5,418.7L371.9,303.1c-15.6,28.1-40.6,50-65.6,65.6l115.6,115.6c18.8,18.7,46.9,18.7,65.6,0
	C503.1,468.7,503.1,437.5,487.5,418.7z M375,187.5C375,84.4,290.6,0,187.5,0S0,84.4,0,187.5S84.4,375,187.5,375S375,290.6,375,187.5
	z M187.5,340.6c-84.4,0-153.1-68.7-153.1-153.1S103.1,34.4,187.5,34.4s153.1,68.8,153.1,153.1S271.9,340.6,187.5,340.6L187.5,340.6z
	"/>
<path d="M78.1,187.5h31.3c0-43.8,34.4-78.1,78.1-78.1V78.1C128.1,78.1,78.1,128.1,78.1,187.5z"/>
</svg>
