<svg xmlns="http://www.w3.org/2000/svg" viewBox="0 0 41.49 44"><title>资源 4</title><g id="图层_2" data-name="图层 2"><g id="图层_1-2" data-name="图层 1"><path d="M40.23,7.54h-39A1.26,1.26,0,0,1,1.26,5h39a1.26,1.26,0,1,1,0,2.51Zm-12.57-5H13.83a1.26,1.26,0,1,1,0-2.51H27.66a1.26,1.26,0,1,1,0,2.51ZM15.09,35.2V13.83a1.26,1.26,0,1,1,2.51,0V35.2a1.26,1.26,0,1,1-2.51,0Zm8.8,0V13.83a1.26,1.26,0,1,1,2.51,0V35.2a1.26,1.26,0,1,1-2.51,0ZM6.29,11.31a1.26,1.26,0,0,1,1.26,1.26V39a2.52,2.52,0,0,0,2.51,2.51H31.43A2.52,2.52,0,0,0,33.94,39V12.57a1.26,1.26,0,0,1,2.51,0V40.23A3.77,3.77,0,0,1,32.69,44H8.8A3.77,3.77,0,0,1,5,40.23V12.57a1.26,1.26,0,0,1,1.26-1.26Zm0,0"/></g></g></svg>