<?xml version="1.0" encoding="utf-8"?>
<!-- Generator: Adobe Illustrator 22.0.0, SVG Export Plug-In . SVG Version: 6.00 Build 0)  -->
<svg version="1.1" id="图层_1" xmlns="http://www.w3.org/2000/svg" xmlns:xlink="http://www.w3.org/1999/xlink" x="0px" y="0px"
	 viewBox="0 0 500 500" style="enable-background:new 0 0 500 500;" xml:space="preserve">
<style type="text/css">
	.st0{fill:#FFFFFF;stroke:#FFFFFF;stroke-width:7;stroke-miterlimit:10;}
</style>
<path class="st0" d="M468,75l-95.3,106.3c21.9,19.5,35.9,44.5,39.8,71.1h34.4c7,0,19.5-7.8,19.5,26.6c0,87.5-60.2,169.5-153.1,196.1
	h82c4.7,0,8.6,3.9,8.6,8.6s-3.9,8.6-8.6,8.6H93c-4.7,0-8.6-3.9-8.6-8.6s3.9-8.6,8.6-8.6h86.7C83.6,449.2,30.5,368,30.5,278.9
	c0-31.3,9.4-26.6,15.6-26.6h29.7c14.1-60.9,76.6-115.6,168-115.6c25,0,48.4,3.9,69.5,10.9c0-0.8,0.8-1.6,1.6-2.3l94.5-134.4
	c3.1-3.9,8.6-4.7,12.5-1.6s4.7,8.6,1.6,12.5l-93,132.8c10.2,4.7,20.3,10.2,28.9,16.4l94.5-107c3.1-3.9,8.6-4.7,12.5-1.6
	C470.3,65.5,470.3,71.1,468,75L468,75z M57,278.9C57,370.3,125,457,248.4,457c114.8,0,191.4-88.3,191.4-178.1H57z M244.5,163.3
	c-72.7,0-124.2,41.4-139.1,89.1h278.9C372.7,201.6,318,163.3,244.5,163.3L244.5,163.3z M302.3,216.4c-7.8,0-13.3-5.5-13.3-13.3
	c0-7,6.3-13.3,13.3-13.3s13.3,6.2,13.3,13.3C315.6,210.9,309.4,216.4,302.3,216.4z M239.8,225.8c-7,0-13.3-6.3-13.3-13.3
	s6.3-13.3,13.3-13.3s13.3,6.3,13.3,13.3S246.9,225.8,239.8,225.8z M177.3,216.4c-7,0-13.3-5.5-13.3-13.3c0-7,6.3-13.3,13.3-13.3
	s13.3,6.2,13.3,13.3C190.6,210.9,185.2,216.4,177.3,216.4z"/>
</svg>
