<?xml version="1.0" standalone="no"?><!DOCTYPE svg PUBLIC "-//W3C//DTD SVG 1.1//EN" "http://www.w3.org/Graphics/SVG/1.1/DTD/svg11.dtd"><svg t="1553220410452" class="icon" style="" viewBox="0 0 1024 1024" version="1.1" xmlns="http://www.w3.org/2000/svg" p-id="807" xmlns:xlink="http://www.w3.org/1999/xlink" width="200" height="200"><defs><style type="text/css"></style></defs><path d="M844.024242 788.169697c15.515152 9.309091 18.618182 27.927273 9.309091 43.442424s-27.927273 18.618182-43.442424 9.309091l-83.781818-49.648485c-6.206061-6.206061-12.412121-15.515152-12.412121-27.927272V620.606061c0-18.618182 12.412121-31.030303 31.030303-31.030303s31.030303 12.412121 31.030303 31.030303v127.224242l68.266666 40.339394zM744.727273 1024c-155.151515 0-279.272727-124.121212-279.272728-279.272727s124.121212-279.272727 279.272728-279.272728 279.272727 124.121212 279.272727 279.272728-124.121212 279.272727-279.272727 279.272727z m0-62.060606c121.018182 0 217.212121-96.193939 217.212121-217.212121s-96.193939-217.212121-217.212121-217.212121-217.212121 96.193939-217.212121 217.212121 96.193939 217.212121 217.212121 217.212121zM713.69697 0c18.618182 0 31.030303 12.412121 31.030303 31.030303v186.181818c0 18.618182-12.412121 31.030303-31.030303 31.030303s-31.030303-12.412121-31.030303-31.030303V31.030303c0-18.618182 12.412121-31.030303 31.030303-31.030303zM62.060606 341.333333h899.878788v62.060606H62.060606v-62.060606z m248.242424-248.242424h496.484849c102.4 0 186.181818 83.781818 186.181818 186.181818v350.642425l-62.060606-31.030304V279.272727c0-68.266667-55.854545-124.121212-124.121212-124.121212H310.30303v62.060606c0 18.618182-12.412121 31.030303-31.030303 31.030303s-31.030303-12.412121-31.030303-31.030303V155.151515H186.181818C117.915152 155.151515 62.060606 211.006061 62.060606 279.272727v496.484849c0 68.266667 55.854545 124.121212 124.121212 124.121212h387.878788l62.060606 62.060606H186.181818c-102.4 0-186.181818-83.781818-186.181818-186.181818V279.272727c0-102.4 83.781818-186.181818 186.181818-186.181818h62.060606V31.030303c0-18.618182 12.412121-31.030303 31.030303-31.030303s31.030303 12.412121 31.030303 31.030303v62.060606z" fill="#707070" p-id="808"></path></svg>