<?xml version="1.0" encoding="utf-8"?>
<!-- Generator: Adobe Illustrator 22.0.0, SVG Export Plug-In . SVG Version: 6.00 Build 0)  -->
<svg version="1.1" id="图层_1" xmlns="http://www.w3.org/2000/svg" xmlns:xlink="http://www.w3.org/1999/xlink" x="0px" y="0px"
	 viewBox="0 0 500 500" style="enable-background:new 0 0 500 500;" xml:space="preserve">
<g>
	<path d="M463.2,181.7c-9.8-12.2-23.3-20.6-38-23.7C400.2,82,332.8,33.1,253,33.1c-79.3,0-146.6,48.6-171.8,123.9
		c-16.2,1.7-31.1,9.5-42.3,22.2c-11.6,13.2-18,30.4-18,48.4v55.7c0,39.1,30,71,66.8,71h34.4c11.3,0,20.5-9.2,20.5-20.5V177
		c0-10-7.3-18.4-16.8-20.1c10.5-24.9,27.4-45.6,49.3-60.1c22.4-14.9,49.4-22.8,77.9-22.8c28.5,0,55.5,7.9,78,22.8
		c21.8,14.4,38.9,35,49.8,59.8h-3c-11.3,0-20.5,9.2-20.5,20.5v156.7c0,4.2,1.4,8.3,3.8,11.8c-2.9,3.4-5.8,6.8-8.5,10.2
		c-19.9,23.9-38.7,46.5-70.5,51.9c-7.1-10.7-19.2-17.3-32-17.3c-21.1,0-38.3,17.2-38.3,38.3s17.2,38.3,38.3,38.3
		c9.3,0,18.2-3.3,25.1-9.4c6.4-5.6,10.8-13.1,12.4-21.4c21.7-3.7,41.2-13.6,59.7-30.2c16.8-15.2,31.3-34.5,44.1-51.7h20.9
		c36.9,0,66.8-31.8,66.8-71v-55.7C479.1,210.7,473.4,194.4,463.2,181.7L463.2,181.7z M101.6,313.2H87.7c-14.2,0-25.8-13.4-25.8-29.9
		v-55.8c0-2.3,0.3-4.7,0.9-7.5c0.1-0.5,0.3-1.1,0.5-1.7c0.7-2.3,1.5-4.3,2.3-6c0.1-0.1,0.1-0.3,0.2-0.4c0.1-0.1,0.1-0.1,0.1-0.2
		c2.4-4.4,5.8-8.1,9.9-10.5c1.7-1,3.4-1.8,5.3-2.4l0.5-0.2l0.1-0.1h0.1c2-0.6,4.1-0.9,6-0.9h13.9L101.6,313.2L101.6,313.2z
		 M438.1,283.2c0,16.5-11.6,29.9-25.8,29.9h-13.9V197.5h13.9c6.8,0,13.2,3.1,18,8.6c5.1,5.9,7.9,13.5,7.8,21.4L438.1,283.2
		L438.1,283.2z"/>
	<path d="M313,296.3c2.2-2.5,3.2-5.7,3-9.2c-0.3-3.6-2-7.1-4.8-9.4c-2.1-1.8-5.1-2.8-8.2-2.8c-4.1,0-8.1,1.7-10.5,4.6
		c-12.2,13.3-24.9,19.1-42.4,19.1c-18.4,0-29.5-4.9-42.4-19c-2.6-2.9-6.5-4.6-10.6-4.6c-3.1,0-6,1-8.2,2.9c-2.9,2.4-4.6,5.7-4.8,9.4
		c-0.3,3.4,0.8,6.7,3.1,9.3c18.6,20.7,36.2,28.8,62.9,28.8C275.8,325.2,295.9,315.9,313,296.3L313,296.3z"/>
</g>
</svg>
