<?xml version="1.0" encoding="utf-8"?>
<!-- Generator: Adobe Illustrator 22.0.0, SVG Export Plug-In . SVG Version: 6.00 Build 0)  -->
<svg version="1.1" id="图层_1" xmlns="http://www.w3.org/2000/svg" xmlns:xlink="http://www.w3.org/1999/xlink" x="0px" y="0px"
	 viewBox="0 0 500 500" style="enable-background:new 0 0 500 500;" xml:space="preserve">
<path d="M345,387.3c-3.1,6.1-4.9,13-4.9,20.3c0,24.9,20.2,45.1,45.1,45.1c24.9,0,45.1-20.2,45.1-45.1c0-24.9-20.2-45.1-45.1-45.1
	c-15.6,0-29.4,8-37.4,20c-0.3,0.8-0.8,1.6-1.2,2.4C346,385.8,345.5,386.6,345,387.3z M346.8,116c8,12.8,22.1,21.3,38.3,21.3
	c24.9,0,45.1-20.2,45.1-45.1s-20.2-45-45.1-45c-24.9,0-45.1,20.2-45.1,45.1c0,7.8,2,15.2,5.5,21.6c0.2,0.3,0.5,0.7,0.7,1.1
	C346.5,115.3,346.7,115.7,346.8,116L346.8,116z M154.4,228.4c-0.2-0.3-0.5-0.7-0.7-1.1c-0.2-0.3-0.4-0.8-0.6-1.1
	c-8-12.8-22.1-21.3-38.3-21.3c-24.9,0-45.1,20.2-45.1,45.1S89.9,295,114.8,295c16.1,0,30.4-8.5,38.3-21.3c0.2-0.3,0.4-0.8,0.6-1.1
	s0.4-0.8,0.7-1.1c3.5-6.4,5.5-13.7,5.5-21.6C159.9,242.2,157.9,234.9,154.4,228.4L154.4,228.4z M201.6,225.5
	c2.2,7.8,3.4,16,3.4,24.5s-1.2,16.7-3.4,24.5l119.6,69.7c16.3-16.4,38.9-26.6,63.9-26.6c49.8,0,90.1,40.3,90.1,90.1
	s-40.3,90.1-90.1,90.1s-90.1-40.3-90.1-90.1c0-8.5,1.2-16.8,3.4-24.6l-119.6-69.7c-16.3,16.5-39,26.7-64,26.7
	c-49.8,0-90.1-40.3-90.1-90.1s40.3-90.1,90.1-90.1c25.1,0,47.7,10.2,64,26.7l119.6-69.9c-2.2-7.8-3.4-16-3.4-24.5
	c0-49.8,40.3-90.1,90.1-90.1s90.1,40.3,90.1,90.1s-40.3,90.1-90.1,90.1c-25.1,0-47.7-10.2-64-26.7L201.6,225.5z"/>
</svg>
