<?xml version="1.0" encoding="utf-8"?>
<!-- Generator: Adobe Illustrator 22.0.0, SVG Export Plug-In . SVG Version: 6.00 Build 0)  -->
<svg version="1.1" id="图层_1" xmlns="http://www.w3.org/2000/svg" xmlns:xlink="http://www.w3.org/1999/xlink" x="0px" y="0px"
	 viewBox="0 0 500 500" style="enable-background:new 0 0 500 500;" xml:space="preserve">
<path d="M300,500H200c-94.4,0-168.7,0-168.7-47.9v-9.9C32.1,349.8,107.6,275.4,200,276h100c92.4-0.6,167.9,73.7,168.7,166.2v9.9
	C468.7,500,390.6,500,300,500z M245,263.4c-72.7-1-130.9-60.8-129.9-133.5C116.1,57.1,175.9-1,248.7,0c72,1,129.9,59.6,129.9,131.7
	C378,204.9,318.2,263.9,245,263.4L245,263.4z"/>
</svg>
