<?xml version="1.0" encoding="utf-8"?>
<!-- Generator: Adobe Illustrator 22.0.0, SVG Export Plug-In . SVG Version: 6.00 Build 0)  -->
<svg version="1.1" id="图层_1" xmlns="http://www.w3.org/2000/svg" xmlns:xlink="http://www.w3.org/1999/xlink" x="0px" y="0px"
	 viewBox="0 0 500 500" style="enable-background:new 0 0 500 500;" xml:space="preserve">
<g>
	<path d="M272.1,36h94.5c49.1,0,89.2,40.2,89.2,89.2v21.3c0,49.1-40.2,89.2-89.2,89.2h-94.5c-49.1,0-89.2-40.2-89.2-89.2v-21.3
		C182.8,76.2,223,36,272.1,36z M237,90v27.8h151.3V90H237L237,90z M237,144.1v27.8h83.2v-27.8H237z"/>
	<path d="M261.9,209.9h84c6.1,0,15.6,7,11,11l-4.5,3.9c-4.6,4-5.8,8-11,11L266.2,279c-9.3,5.4-15.4,1.8-15.4-8.5v-49.6
		C250.8,214.8,255.8,209.9,261.9,209.9L261.9,209.9z"/>
	<path d="M112,2.9h89.7c-16,19.9-27.4,43.4-33,69.2h-65.3c-17.5,0-31.9,14.3-31.9,31.9v243c0,17.5,14.3,31.9,31.9,31.9h237.8
		c17.5,0,31.9-14.3,31.9-31.9v-78.2c9.4-2.4,18.5-5.6,27.3-9.6v169.9c0,37.3-30.5,67.8-67.8,67.8H112c-37.3,0-67.8-30.5-67.8-67.8
		V70.8C44.2,33.5,74.7,2.9,112,2.9L112,2.9z M222.3,401.6c-15.8,0-28.7,12.8-28.7,28.7c0,15.8,12.8,28.7,28.7,28.7
		s28.7-12.8,28.7-28.7C250.9,414.4,238.1,401.6,222.3,401.6z"/>
</g>
</svg>
